# xmcd
#
# Track frame offsets:
#	150
#	1976
#	15230
#	33458
#	51416
#	68347
#	86256
#	106253
#	123725
#	140743
#	166381
#	184760
#	200553
#	218321
#	240511
#
# Disc length: 3496 seconds
#
# Revision: 0
# Processed by: cddbd v1.4PL0 Copyright (c) Steve Scherf et al.
# Submitted via: dBpowerAMP V4.0
#
DISCID=be0da60f
DTITLE=K-Os  - exit
DYEAR=2003
DGENRE=hip hop
TTITLE0=Intro
TTITLE1=Fantastique
TTITLE2=Call Me
TTITLE3=Heaven Only Knows
TTITLE4=Superstarr part 1
TTITLE5=Freeze
TTITLE6=The Anthem
TTITLE7=Patience
TTITLE8=Higher
TTITLE9=Masquerade
TTITLE10=Follow Me
TTITLE11=Superstarr part 2
TTITLE12=Neutroniks
TTITLE13=Superstarr part Zero
TTITLE14=Heaven Only Knows (Remix)
EXTD=
EXTT0=
EXTT1=
EXTT2=
EXTT3=
EXTT4=
EXTT5=
EXTT6=
EXTT7=
EXTT8=
EXTT9=
EXTT10=
EXTT11=
EXTT12=
EXTT13=
EXTT14=
PLAYORDER=
